<?xml version="1.0" standalone="no"?>
<!DOCTYPE svg PUBLIC "-//W3C//DTD SVG 20010904//EN"
 "http://www.w3.org/TR/2001/REC-SVG-20010904/DTD/svg10.dtd">
<svg version="1.0" xmlns="http://www.w3.org/2000/svg"
 width="700.000000pt" height="700.000000pt" viewBox="0 0 700.000000 700.000000"
 preserveAspectRatio="xMidYMid meet">
<metadata>
Created by potrace 1.14, written by Peter Selinger 2001-2017
</metadata>
<g transform="translate(0.000000,700.000000) scale(0.100000,-0.100000)"
fill="#000000" stroke="none">
<path d="M3327 6414 c-1 -1 -38 -5 -82 -9 -95 -8 -125 -11 -185 -21 -46 -7
-51 -8 -110 -19 -19 -4 -46 -9 -60 -12 -87 -15 -281 -73 -401 -119 -701 -267
-1283 -792 -1606 -1449 -111 -226 -219 -543 -249 -730 -3 -21 -7 -46 -9 -55
-2 -10 -6 -40 -10 -67 -4 -26 -8 -59 -10 -72 -31 -197 -23 -622 15 -826 6 -27
13 -68 16 -90 18 -119 94 -374 159 -530 242 -587 651 -1071 1182 -1398 110
-68 337 -183 448 -227 176 -71 439 -145 580 -165 38 -5 60 -9 130 -20 149 -24
572 -25 725 -1 14 2 48 7 75 11 266 34 591 138 860 274 88 45 122 64 210 115
68 40 158 102 260 179 337 255 640 617 828 992 141 281 228 529 271 770 3 17
8 39 10 50 2 11 7 45 11 75 4 30 9 64 11 75 23 122 23 559 0 715 -3 14 -7 43
-9 65 -11 81 -19 122 -42 225 -137 600 -486 1170 -965 1575 -109 91 -234 185
-248 185 -5 0 -12 3 -14 8 -10 24 -268 170 -427 242 -217 98 -481 183 -637
205 -22 3 -52 9 -69 12 -16 3 -39 7 -50 8 -11 2 -42 6 -70 9 -27 4 -70 9 -95
12 -43 5 -438 13 -443 8z m428 -599 c28 -4 53 -9 57 -11 3 -2 -104 -194 -239
-426 -135 -233 -255 -441 -268 -463 -12 -22 -103 -179 -202 -350 -99 -170
-238 -410 -309 -533 -71 -122 -133 -223 -139 -224 -5 0 -19 15 -30 35 -18 33
-102 179 -455 792 -70 121 -138 240 -152 265 -14 25 -54 94 -88 154 l-63 109
34 31 c87 77 109 96 191 158 172 131 420 267 623 343 119 45 340 102 427 111
35 3 66 8 69 10 4 2 65 7 135 10 71 4 130 7 131 8 4 3 235 -13 278 -19z m519
-116 c450 -153 877 -479 1145 -873 46 -67 161 -261 161 -271 0 -2 16 -38 35
-79 19 -42 35 -82 35 -89 0 -10 -234 -12 -1160 -12 -1000 0 -1160 2 -1155 14
3 8 59 105 124 215 65 111 181 309 258 441 77 132 164 281 193 330 30 50 59
99 64 110 58 107 153 255 165 255 7 0 68 -18 135 -41z m-2594 -801 c16 -27
128 -217 163 -280 13 -24 129 -223 257 -443 248 -427 255 -438 307 -530 19
-33 43 -76 55 -95 180 -307 358 -621 355 -627 -3 -5 -357 -8 -787 -7 -670 0
-783 2 -790 15 -4 8 -17 61 -28 119 -20 98 -27 148 -38 260 -6 65 -6 342 1
398 8 67 24 181 31 222 13 80 70 291 94 345 5 11 23 56 41 100 52 129 139 291
228 423 46 67 86 122 90 122 3 0 13 -10 21 -22z m4079 -824 c7 -8 30 -111 46
-204 22 -140 34 -467 20 -575 -2 -16 -6 -55 -9 -85 -11 -104 -62 -337 -89
-405 -6 -16 -12 -34 -13 -40 -1 -5 -11 -35 -23 -65 -75 -194 -184 -395 -308
-569 l-45 -63 -28 48 c-14 27 -67 119 -116 204 -403 694 -867 1495 -883 1522
-10 18 -39 67 -64 109 -25 42 -52 90 -60 105 l-15 29 789 -1 c481 0 793 -4
798 -10z m-1386 -912 c7 -15 83 -146 167 -292 84 -146 162 -281 173 -300 11
-19 110 -192 220 -384 l200 -349 -54 -50 c-54 -49 -284 -227 -293 -227 -3 0
-25 -13 -48 -29 -169 -114 -440 -233 -662 -292 -280 -73 -631 -92 -871 -46
-11 2 -20 6 -20 8 0 4 214 376 281 489 18 30 112 192 208 360 97 168 180 312
186 320 5 8 24 42 43 75 60 105 73 129 107 185 18 30 76 129 128 220 175 304
203 350 212 345 5 -3 15 -18 23 -33z m-723 -546 c0 -5 -64 -120 -141 -255
-476 -827 -614 -1068 -623 -1087 l-10 -21 -65 20 c-503 151 -955 488 -1254
935 -60 90 -207 375 -207 402 0 13 134 15 1150 15 672 0 1150 -4 1150 -9z"/>
</g>
</svg>
